<svg width="78" height="49" viewBox="0 0 78 49" fill="none" xmlns="http://www.w3.org/2000/svg">
<path d="M1.96 17.16V11.28L25.24 11.2V12.44L7.96 35.96L22.4 36.04L23.8 31.64H25.12V37.48L1.4 37.56V36.44L18.84 12.8L4.68 12.72L3.28 17.16H1.96ZM38.515 38H28.195V37.08L30.795 36.84V19.8L27.355 19.6V18.76L35.915 18.24V36.84L38.515 37.08V38ZM36.195 11.52C36.195 12.32 35.9017 13.0133 35.315 13.6C34.755 14.1867 34.0483 14.48 33.195 14.48C32.3417 14.48 31.6217 14.2 31.035 13.64C30.475 13.0533 30.195 12.3467 30.195 11.52C30.195 10.6667 30.4883 9.94667 31.075 9.36C31.6617 8.74667 32.3683 8.44 33.195 8.44C34.0217 8.44 34.7283 8.74667 35.315 9.36C35.9017 9.97333 36.195 10.6933 36.195 11.52ZM47.9388 23.2C48.3921 21.76 49.2188 20.5333 50.4188 19.52C51.6454 18.5067 52.7521 18 53.7388 18C54.7521 18 55.4321 18.2533 55.7788 18.76C56.1254 19.24 56.2988 19.64 56.2988 19.96C56.2988 21.0533 55.8988 21.84 55.0988 22.32C54.5654 21.8933 53.7654 21.68 52.6988 21.68C51.6588 21.68 50.6188 22.0133 49.5788 22.68C48.5388 23.32 48.0188 24.0267 48.0188 24.8V36.84L51.6188 37.08V38H40.4588V37.08L43.0988 36.88V19.8L39.8588 19.64V18.72L48.0188 18.28L47.7788 23.2H47.9388ZM69.3234 28.64C66.2301 28.64 64.2834 29.4533 63.4834 31.08C63.1368 31.7733 62.9634 32.64 62.9634 33.68C62.9634 35.4667 63.5768 36.5067 64.8034 36.8C64.9901 36.8533 65.1901 36.88 65.4034 36.88C66.2568 36.88 67.1101 36.44 67.9634 35.56C68.8168 34.6533 69.2701 33.4933 69.3234 32.08V28.64ZM62.9234 24.72C62.3368 25.12 61.7234 25.32 61.0834 25.32C60.4434 25.32 59.8968 25.1067 59.4434 24.68C58.9901 24.2533 58.7634 23.6267 58.7634 22.8C58.7634 21.9467 59.0168 21.1867 59.5234 20.52C60.0301 19.8533 60.6834 19.36 61.4834 19.04C63.0568 18.3733 64.5501 18.04 65.9634 18.04C69.1101 18.04 71.2568 18.6 72.4034 19.72C73.5501 20.8133 74.1234 22.5067 74.1234 24.8V36.84L77.4834 37.08V37.96L69.8434 38.44L69.4834 35.08C68.2301 37.3467 66.0701 38.48 63.0034 38.48C61.6168 38.48 60.4168 38.0667 59.4034 37.24C58.4168 36.3867 57.9234 35.2 57.9234 33.68C57.9501 31.6533 58.9634 30.1333 60.9634 29.12C62.9634 28.08 65.7501 27.56 69.3234 27.56V24.12C69.3234 22.4933 69.0968 21.24 68.6434 20.36C68.1901 19.48 67.3501 19.04 66.1234 19.04C64.8968 19.04 63.9768 19.5467 63.3634 20.56C62.9634 21.2267 62.7634 21.9333 62.7634 22.68C62.7634 23.4267 62.8168 24.1067 62.9234 24.72Z" fill="white"/>
<circle cx="33.5" cy="11.5" r="3.5" fill="#FF0000"/>
</svg>
